{
  "accessors": [
    {
      "name": "house2_1_0_positions",
      "componentType": 5126,
      "count": 512,
      "min": [
        -292.0851135253906,
        0,
        -180.52059936523438
      ],
      "max": [
        292.0852966308594,
        346.9242858886719,
        180.52049255371094
      ],
      "type": "VEC3",
      "bufferView": 0,
      "byteOffset": 0
    },
    {
      "name": "house2_1_0_normals",
      "componentType": 5126,
      "count": 512,
      "min": [
        -1,
        -1,
        -1
      ],
      "max": [
        1,
        1,
        1
      ],
      "type": "VEC3",
      "bufferView": 1,
      "byteOffset": 0
    },
    {
      "name": "house2_1_0_texcoords",
      "componentType": 5126,
      "count": 512,
      "min": [
        0.0034000000450760126,
        0.0052999998442828655
      ],
      "max": [
        0.9979000091552734,
        0.9976000189781189
      ],
      "type": "VEC2",
      "bufferView": 2,
      "byteOffset": 0
    },
    {
      "name": "house2_1_0_indices",
      "componentType": 5123,
      "count": 921,
      "min": [
        0
      ],
      "max": [
        511
      ],
      "type": "SCALAR",
      "bufferView": 3,
      "byteOffset": 0
    }
  ],
  "asset": {
    "generator": "obj2gltf",
    "version": "2.0"
  },
  "buffers": [
    {
      "name": "house",
      "byteLength": 18228,
      "uri": "data:application/octet-stream;base64,"
    }
  ],
  "bufferViews": [
    {
      "name": "bufferView_0",
      "buffer": 0,
      "byteLength": 6144,
      "byteOffset": 0,
      "byteStride": 12,
      "target": 34962
    },
    {
      "name": "bufferView_1",
      "buffer": 0,
      "byteLength": 6144,
      "byteOffset": 6144,
      "byteStride": 12,
      "target": 34962
    },
    {
      "name": "bufferView_2",
      "buffer": 0,
      "byteLength": 4096,
      "byteOffset": 12288,
      "byteStride": 8,
      "target": 34962
    },
    {
      "name": "bufferView_3",
      "buffer": 0,
      "byteLength": 1844,
      "byteOffset": 16384,
      "target": 34963
    }
  ],
  "materials": [
    {
      "name": "01___Default",
      "pbrMetallicRoughness": {
        "baseColorFactor": [
          0.5882,
          0.5882,
          0.5882,
          1
        ],
        "metallicFactor": 0,
        "roughnessFactor": 0.99
      },
      "emissiveFactor": [
        0,
        0,
        0
      ],
      "alphaMode": "OPAQUE",
      "doubleSided": false
    }
  ],
  "meshes": [
    {
      "name": "house2_1",
      "primitives": [
        {
          "attributes": {
            "POSITION": 0,
            "NORMAL": 1,
            "TEXCOORD_0": 2
          },
          "indices": 3,
          "material": 0,
          "mode": 4
        }
      ]
    }
  ],
  "nodes": [
    {
      "name": "house2",
      "mesh": 0
    }
  ],
  "scene": 0,
  "scenes": [
    {
      "nodes": [
        0
      ]
    }
  ]
}
